<?xml version="1.0" encoding="UTF-8"?>
<svg version="1.1" xmlns="http://www.w3.org/2000/svg" width="512" height="512">
<path d="M0 0 C7.62383141 3.31534431 11.89516987 9.02648067 15.02734375 16.56640625 C15.67325742 18.22822618 16.30968237 19.89375946 16.9375 21.5625 C17.62750212 23.3429927 18.31891631 25.1229388 19.01171875 26.90234375 C19.3473584 27.76972168 19.68299805 28.63709961 20.02880859 29.53076172 C21.76940383 33.95619666 23.67391642 38.30678523 25.578125 42.6640625 C26.69281041 45.27928597 27.75950762 47.89995737 28.8046875 50.54296875 C31.36590527 56.97984057 34.12794803 63.32828097 36.875 69.6875 C40.60947548 78.35368485 44.300826 87.0274464 47.71875 95.82421875 C48.67033771 98.18287976 49.65895218 100.49180048 50.703125 102.80859375 C54.04230172 110.26311819 57.11907027 117.83139308 60.25 125.375 C61.59966556 128.62394536 62.95000988 131.87260799 64.30078125 135.12109375 C64.62760391 135.90724564 64.95442657 136.69339752 65.29115295 137.50337219 C67.33953063 142.4261321 69.41035133 147.33869755 71.50219727 152.24316406 C83.26886058 179.84921207 95.73976452 209.63163941 84.41796875 239.6328125 C83.71607422 241.29957031 83.71607422 241.29957031 83 243 C82.60425781 244.06992187 82.20851563 245.13984375 81.80078125 246.2421875 C77.03031419 258.69928753 69.04868804 271.09973345 59 280 C58.34 280 57.68 280 57 280 C56.76925781 280.59167969 56.53851563 281.18335938 56.30078125 281.79296875 C53.65832492 286.27641568 48.38743415 288.43305566 44 291 C42.95714844 291.61617188 41.91429687 292.23234375 40.83984375 292.8671875 C19.25880374 305.08682863 -5.29309767 306.68427826 -29.04736328 300.46386719 C-41.60667421 296.8913587 -51.9541995 291.26940895 -62 283 C-62.86625 282.360625 -63.7325 281.72125 -64.625 281.0625 C-68.12019 278.02720342 -71.02754967 274.53923112 -74 271 C-74.8146875 270.05898438 -75.629375 269.11796875 -76.46875 268.1484375 C-84.06872282 258.99340217 -88.42215314 248.20503979 -92 237 C-92.35320312 236.0203125 -92.70640625 235.040625 -93.0703125 234.03125 C-99.90747279 211.73866014 -93.35611666 188.73373677 -85 168 C-84.71189453 167.28102539 -84.42378906 166.56205078 -84.12695312 165.82128906 C-81.34469947 158.90218343 -78.50875473 152.01851726 -75.375 145.25 C-73.71005836 141.6470877 -72.21305674 138.02617135 -70.8125 134.3125 C-67.19167933 124.72931849 -63.15364025 115.31584659 -59.19726562 105.86767578 C-57.57438878 101.98058127 -55.97285722 98.08492879 -54.375 94.1875 C-48.19018861 79.13498453 -41.79399736 64.17459156 -35.36816406 49.22363281 C-32.54731915 42.64885279 -29.76387864 36.06223656 -27.0625 29.4375 C-14.00307749 -2.50054955 -14.00307749 -2.50054955 0 0 Z " fill="#0C387B" transform="translate(314,136)"/>
<path d="M0 0 C0.81984375 -0.0515625 1.6396875 -0.103125 2.484375 -0.15625 C7.30043009 0.98654273 10.782067 4.13273542 13.37695312 8.31738281 C14.3987322 10.47172332 15.27278377 12.64803095 16.125 14.875 C16.88518318 16.74801979 17.64705933 18.62035292 18.41015625 20.4921875 C18.84473145 21.57338867 19.27930664 22.65458984 19.72705078 23.76855469 C21.49096547 28.121687 23.33697956 32.43925486 25.18359375 36.7578125 C25.53635376 37.58294342 25.88911377 38.40807434 26.25256348 39.25820923 C26.98409656 40.96887215 27.71572645 42.67949368 28.44744873 44.39007568 C35.41443105 60.69721516 42.24928011 77.05648145 48.99536133 93.45605469 C52.65945606 102.40652012 52.65945606 102.40652012 56.49145508 111.28540039 C61.80502597 123.51254836 61.07796756 140.2393333 57.1875 152.8125 C50.49998863 169.54995862 39.30104946 180.74072491 23.25 188.5 C8.34823122 194.27346016 -10.8028192 192.89433367 -25.3203125 186.67578125 C-39.63976117 179.74627313 -50.65063574 167.59891324 -56.0625 152.6875 C-57.66759882 146.91322502 -58.38374538 141.20854807 -58.8125 135.25 C-58.88702393 134.44199951 -58.96154785 133.63399902 -59.03833008 132.80151367 C-59.79547728 117.23523472 -51.55028712 101.58655449 -45.5625 87.625 C-44.77279273 85.76449032 -43.98407631 83.9035598 -43.19628906 82.04223633 C-41.55532144 78.16702437 -39.91011549 74.29365181 -38.26220703 70.42138672 C-35.74557714 64.49958079 -33.25738741 58.56611361 -30.77734375 52.62890625 C-30.37437576 51.66422424 -29.97140778 50.69954224 -29.55622864 49.70562744 C-28.75841051 47.79507972 -27.96072472 45.88447674 -27.16317749 43.97381592 C-24.65735591 37.97128352 -22.14963079 31.96959143 -19.62695312 25.97412109 C-18.41875812 23.10246361 -17.2252351 20.22550559 -16.04492188 17.34228516 C-15.52487634 16.08881044 -15.00470279 14.83538882 -14.484375 13.58203125 C-14.04834961 12.51831299 -13.61232422 11.45459473 -13.16308594 10.35864258 C-10.22784632 4.42071572 -6.89734773 0.25704401 0 0 Z " fill="#0D387B" transform="translate(157.75,132.5)"/>
<path d="M0 0 C7.62383141 3.31534431 11.89516987 9.02648067 15.02734375 16.56640625 C15.67325742 18.22822618 16.30968237 19.89375946 16.9375 21.5625 C17.62750212 23.3429927 18.31891631 25.1229388 19.01171875 26.90234375 C19.3473584 27.76972168 19.68299805 28.63709961 20.02880859 29.53076172 C21.76940383 33.95619666 23.67391642 38.30678523 25.578125 42.6640625 C26.69281041 45.27928597 27.75950762 47.89995737 28.8046875 50.54296875 C31.36590527 56.97984057 34.12794803 63.32828097 36.875 69.6875 C40.60947548 78.35368485 44.300826 87.0274464 47.71875 95.82421875 C48.67033771 98.18287976 49.65895218 100.49180048 50.703125 102.80859375 C54.04230172 110.26311819 57.11907027 117.83139308 60.25 125.375 C61.59966556 128.62394536 62.95000988 131.87260799 64.30078125 135.12109375 C64.62760391 135.90724564 64.95442657 136.69339752 65.29115295 137.50337219 C67.33953063 142.4261321 69.41035133 147.33869755 71.50219727 152.24316406 C83.26886058 179.84921207 95.73976452 209.63163941 84.41796875 239.6328125 C83.71607422 241.29957031 83.71607422 241.29957031 83 243 C82.60425781 244.06992187 82.20851563 245.13984375 81.80078125 246.2421875 C77.03031419 258.69928753 69.04868804 271.09973345 59 280 C58.34 280 57.68 280 57 280 C56.76925781 280.59167969 56.53851563 281.18335938 56.30078125 281.79296875 C53.65832492 286.27641568 48.38743415 288.43305566 44 291 C42.95714844 291.61617188 41.91429687 292.23234375 40.83984375 292.8671875 C19.25880374 305.08682863 -5.29309767 306.68427826 -29.04736328 300.46386719 C-41.60667421 296.8913587 -51.9541995 291.26940895 -62 283 C-62.86625 282.360625 -63.7325 281.72125 -64.625 281.0625 C-68.12019 278.02720342 -71.02754967 274.53923112 -74 271 C-74.8146875 270.05898438 -75.629375 269.11796875 -76.46875 268.1484375 C-84.06872282 258.99340217 -88.42215314 248.20503979 -92 237 C-92.35320312 236.0203125 -92.70640625 235.040625 -93.0703125 234.03125 C-99.90747279 211.73866014 -93.35611666 188.73373677 -85 168 C-84.71189453 167.28102539 -84.42378906 166.56205078 -84.12695312 165.82128906 C-81.34469947 158.90218343 -78.50875473 152.01851726 -75.375 145.25 C-73.71005836 141.6470877 -72.21305674 138.02617135 -70.8125 134.3125 C-67.19167933 124.72931849 -63.15364025 115.31584659 -59.19726562 105.86767578 C-57.57438878 101.98058127 -55.97285722 98.08492879 -54.375 94.1875 C-48.19018861 79.13498453 -41.79399736 64.17459156 -35.36816406 49.22363281 C-32.54731915 42.64885279 -29.76387864 36.06223656 -27.0625 29.4375 C-14.00307749 -2.50054955 -14.00307749 -2.50054955 0 0 Z M-7.375 18.3125 C-11.80822252 22.85127543 -13.6851129 28.71024386 -16.01171875 34.53125 C-17.02166771 37.05412645 -18.07012482 39.55809355 -19.125 42.0625 C-21.84933329 48.57826449 -24.46239508 55.13696441 -27.05712891 61.70532227 C-28.59938005 65.58866906 -30.17639952 69.44305452 -31.890625 73.25390625 C-34.35765117 78.74158493 -36.62960167 84.30783204 -38.91592407 89.87268066 C-43.16662181 100.21504201 -47.48050208 110.52696834 -51.91015625 120.79418945 C-54.51751387 126.84638701 -57.04795366 132.92675157 -59.54150391 139.02661133 C-61.37976005 143.51671619 -63.26698331 147.98190127 -65.1875 152.4375 C-78.45163906 183.27049872 -89.48623232 210.23605139 -76.6875 243.25 C-68.75364446 261.3636025 -53.30907297 277.85082528 -34.72265625 285.31640625 C-13.63095207 292.4970398 6.66805963 292.74348717 27.625 285.125 C28.60098145 284.77671143 28.60098145 284.77671143 29.59667969 284.42138672 C34.24938256 282.62435576 37.32714432 280.2617948 41 277 C43.375 275.6875 43.375 275.6875 45 275 C45 274.34 45 273.68 45 273 C45.55171875 272.76925781 46.1034375 272.53851563 46.671875 272.30078125 C62.04596908 263.71089312 69.93990261 245.04637218 74.59545898 228.93994141 C76.20346561 222.59514337 76.33274939 216.39530452 76.3125 209.875 C76.33666992 208.30685547 76.33666992 208.30685547 76.36132812 206.70703125 C76.3652044 200.57476037 75.76709322 196.45455786 73 191 C71.77626225 187.38405234 70.62495576 183.74985976 69.4765625 180.109375 C68.04847501 175.9008564 66.19060664 171.91794153 64.32519531 167.88818359 C62.13507271 163.11494292 60.10290169 158.27621072 58.0625 153.4375 C57.5986792 152.33978271 57.1348584 151.24206543 56.65698242 150.11108398 C52.03663499 139.14393018 47.51297221 128.13731433 42.99145508 117.12915039 C39.64463973 108.98248471 36.27786939 100.84556728 32.84399414 92.73510742 C29.69240833 85.29030291 26.59287668 77.82394312 23.49902344 70.35498047 C21.73291855 66.10327304 19.95282279 61.8668326 18.046875 57.67578125 C14.99869231 50.8804308 12.42510311 43.88176371 9.78173828 36.92114258 C9.07987023 35.07640338 8.36815281 33.23542121 7.65625 31.39453125 C7.24181641 30.31018799 6.82738281 29.22584473 6.40039062 28.10864258 C4.30035896 23.4469091 2.29057011 19.86038007 -2 17 C-5.01463534 16.75815694 -5.01463534 16.75815694 -7.375 18.3125 Z " fill="#0B1B34" transform="translate(314,136)"/>
<path d="M0 0 C0.81984375 -0.0515625 1.6396875 -0.103125 2.484375 -0.15625 C7.30043009 0.98654273 10.782067 4.13273542 13.37695312 8.31738281 C14.3987322 10.47172332 15.27278377 12.64803095 16.125 14.875 C16.88518318 16.74801979 17.64705933 18.62035292 18.41015625 20.4921875 C18.84473145 21.57338867 19.27930664 22.65458984 19.72705078 23.76855469 C21.49096547 28.121687 23.33697956 32.43925486 25.18359375 36.7578125 C25.53635376 37.58294342 25.88911377 38.40807434 26.25256348 39.25820923 C26.98409656 40.96887215 27.71572645 42.67949368 28.44744873 44.39007568 C35.41443105 60.69721516 42.24928011 77.05648145 48.99536133 93.45605469 C52.65945606 102.40652012 52.65945606 102.40652012 56.49145508 111.28540039 C61.80502597 123.51254836 61.07796756 140.2393333 57.1875 152.8125 C50.49998863 169.54995862 39.30104946 180.74072491 23.25 188.5 C8.34823122 194.27346016 -10.8028192 192.89433367 -25.3203125 186.67578125 C-39.63976117 179.74627313 -50.65063574 167.59891324 -56.0625 152.6875 C-57.66759882 146.91322502 -58.38374538 141.20854807 -58.8125 135.25 C-58.88702393 134.44199951 -58.96154785 133.63399902 -59.03833008 132.80151367 C-59.79547728 117.23523472 -51.55028712 101.58655449 -45.5625 87.625 C-44.77279273 85.76449032 -43.98407631 83.9035598 -43.19628906 82.04223633 C-41.55532144 78.16702437 -39.91011549 74.29365181 -38.26220703 70.42138672 C-35.74557714 64.49958079 -33.25738741 58.56611361 -30.77734375 52.62890625 C-30.37437576 51.66422424 -29.97140778 50.69954224 -29.55622864 49.70562744 C-28.75841051 47.79507972 -27.96072472 45.88447674 -27.16317749 43.97381592 C-24.65735591 37.97128352 -22.14963079 31.96959143 -19.62695312 25.97412109 C-18.41875812 23.10246361 -17.2252351 20.22550559 -16.04492188 17.34228516 C-15.52487634 16.08881044 -15.00470279 14.83538882 -14.484375 13.58203125 C-14.04834961 12.51831299 -13.61232422 11.45459473 -13.16308594 10.35864258 C-10.22784632 4.42071572 -6.89734773 0.25704401 0 0 Z M0.25 16.5 C-2.48065653 19.63378967 -3.83621656 22.88962897 -5.3125 26.75 C-5.83938071 28.103553 -6.36816178 29.45636719 -6.8984375 30.80859375 C-7.19073242 31.5547998 -7.48302734 32.30100586 -7.78417969 33.06982422 C-9.61374356 37.67333251 -11.52851353 42.2414884 -13.4375 46.8125 C-13.86160156 47.82908691 -14.28570312 48.84567383 -14.72265625 49.89306641 C-17.89388293 57.48119077 -21.10025705 65.05416882 -24.3125 72.625 C-29.22629401 84.20912221 -34.03181844 95.83489547 -38.75 107.5 C-39.10626465 108.37390381 -39.4625293 109.24780762 -39.82958984 110.14819336 C-45.83025874 124.96277459 -47.52959636 135.26460501 -41.75 150.5 C-35.95868629 163.77261931 -26.31402206 171.51192022 -13.14453125 176.703125 C-1.97162269 180.42135232 9.82819628 179.0647291 20.32421875 174.0234375 C32.9712714 167.07311246 40.8797609 157.80669266 45.6875 144.1875 C50.97817402 125.07856767 39.12956485 105.59126118 31.8767395 88.31774902 C29.64607364 83.00476031 27.42489917 77.6878055 25.203125 72.37109375 C24.55320335 70.81668076 24.55320335 70.81668076 23.89015198 69.23086548 C19.6758269 59.14337934 15.54186072 49.0249179 11.44140625 38.890625 C10.71132123 37.09359405 9.98084304 35.2967228 9.25 33.5 C8.8257373 32.45005859 8.40147461 31.40011719 7.96435547 30.31835938 C7.5313916 29.25939453 7.09842773 28.20042969 6.65234375 27.109375 C6.26425537 26.15514648 5.87616699 25.20091797 5.47631836 24.21777344 C4.24698956 21.49332826 2.89106916 18.99748884 1.25 16.5 C0.92 16.5 0.59 16.5 0.25 16.5 Z " fill="#091A34" transform="translate(157.75,132.5)"/>
<path d="M0 0 C0.639375 -0.01289062 1.27875 -0.02578125 1.9375 -0.0390625 C5.19526908 1.00984042 6.7516871 3.08278024 9 5.625 C10.24056414 8.05979797 11.28810436 10.35231487 12.26953125 12.8828125 C12.55178055 13.57940475 12.83402985 14.27599701 13.12483215 14.99369812 C14.03262466 17.2412241 14.92267895 19.49530626 15.8125 21.75 C16.43474818 23.30089133 17.0582887 24.85126476 17.68310547 26.40112305 C18.61011467 28.70152126 19.53607217 31.00228393 20.45690918 33.30516052 C22.4474439 38.28139474 24.50723781 43.22209806 26.63354492 48.14208984 C38.43134835 75.45628532 38.43134835 75.45628532 33.10546875 89.43359375 C28.41140876 98.7387798 20.82512469 106.16801168 11 109.625 C1.07089294 111.96892035 -9.76820386 111.48940753 -18.5625 106.0625 C-27.93512749 99.24604364 -32.7864872 92.07752276 -35 80.625 C-37.03505246 66.80602471 -28.99161781 52.90581724 -23.6875 40.4375 C-22.82133223 38.39447653 -21.95583174 36.35117148 -21.09048462 34.30780029 C-20.52097997 32.96322692 -19.95097939 31.61886348 -19.38046265 30.27471924 C-17.73313158 26.38641335 -16.12366883 22.48561234 -14.55078125 18.56640625 C-14.19733643 17.69459717 -13.8438916 16.82278809 -13.47973633 15.92456055 C-12.85108433 14.36883093 -12.2315926 12.80935013 -11.6237793 11.24536133 C-9.47192554 5.96954717 -6.44998358 -0.13003999 0 0 Z " fill="#0A1A34" transform="translate(230,52.375)"/>
<path d="M0 0 C3.18554081 2.64349698 4.35700254 5.73567793 5.92578125 9.51171875 C6.32830864 10.47347771 6.32830864 10.47347771 6.7389679 11.45466614 C7.60447505 13.52918735 8.45880753 15.60809228 9.3125 17.6875 C9.9018449 19.10821238 10.49152615 20.52878528 11.08154297 21.94921875 C14.50066648 30.20900742 17.82247781 38.49426959 20.8515625 46.90625 C21.69756864 49.18528695 22.62410129 51.43482111 23.59375 53.6640625 C26.40611808 60.33562456 26.52314505 65.3296294 24.02734375 72.0234375 C22.57298816 74.82155129 20.59310608 76.27126261 18 78 C17.34 78.99 16.68 79.98 16 81 C9.9059325 84.66655514 3.34364154 86.95547542 -3.69921875 85.40625 C-11.96242992 82.79088166 -17.2308942 78.60981706 -21.375 71 C-24.84025047 63.16943401 -23.73831105 57.78624794 -21 50 C-18.84831709 44.60282876 -16.55483572 39.27064668 -14.25 33.9375 C-13.30199619 31.72753671 -12.35591443 29.51675718 -11.40994263 27.30592346 C-10.79163509 25.86119437 -10.17272597 24.41672258 -9.55319214 22.97251892 C-7.19804498 17.47948853 -4.88833231 11.96905943 -2.625 6.4375 C-2.3455957 5.75486084 -2.06619141 5.07222168 -1.77832031 4.36889648 C-1.18389848 2.91326971 -0.59160576 1.45677358 0 0 Z " fill="#0C377A" transform="translate(229,67)"/>
<path d="M0 0 C5.42220114 0.48197343 5.42220114 0.48197343 7.8125 2.625 C9.35501495 5.7100299 9.67192103 8.58797874 10 12 C10.66 12 11.32 12 12 12 C12.04485835 41.4046472 12.04485835 41.4046472 5 54 C4.68579102 54.57911133 4.37158203 55.15822266 4.04785156 55.75488281 C-0.36724403 63.81320415 -5.27959768 70.85306512 -13 76 C-16.31702672 76.5103118 -17.58054426 76.28699603 -20.375 74.375 C-22 72 -22 72 -22.1875 69.1875 C-20.50358707 64.66752319 -17.4774331 62.23430748 -14 59 C-9.85711464 54.77998645 -7.76468002 50.55874206 -6 45 C-5.608125 43.845 -5.21625 42.69 -4.8125 41.5 C-4.544375 40.675 -4.27625 39.85 -4 39 C-3.34 39 -2.68 39 -2 39 C-1.97095136 35.08334892 -1.95318483 31.1667256 -1.9375 27.25 C-1.92912109 26.13882812 -1.92074219 25.02765625 -1.91210938 23.8828125 C-1.90888672 22.81289063 -1.90566406 21.74296875 -1.90234375 20.640625 C-1.89710693 19.65610352 -1.89187012 18.67158203 -1.88647461 17.65722656 C-1.98918826 15.25306448 -2.37040741 13.30599221 -3 11 C-3.448 4.728 -3.448 4.728 -1.5 1.5625 C-1.005 1.046875 -0.51 0.53125 0 0 Z " fill="#F1F1F2" transform="translate(363,323)"/>
<path d="M0 0 C3.47105699 0.3471057 4.76341933 0.77598743 7.125 3.3125 C8.15467023 7.11024475 8.23057339 10.70532186 8.1875 14.625 C8.17847656 15.69363281 8.16945312 16.76226562 8.16015625 17.86328125 C8.14855469 18.67152344 8.13695312 19.47976563 8.125 20.3125 C7.465 20.3125 6.805 20.3125 6.125 20.3125 C6.02703125 20.89257812 5.9290625 21.47265625 5.828125 22.0703125 C4.81774774 27.34866265 3.48283594 30.99528237 0.125 35.3125 C-0.23464844 35.87324219 -0.59429687 36.43398438 -0.96484375 37.01171875 C-2.125 38.6875 -2.125 38.6875 -4.875 41.3125 C-7.72786212 41.82250887 -9.94930799 41.610028 -12.875 41.3125 C-14.02153577 36.64992121 -14.66929086 33.87707842 -12.453125 29.51171875 C-11.18540908 27.61800262 -9.90127683 25.73518058 -8.6015625 23.86328125 C-4.49297799 17.79335889 -4.71646461 11.94852216 -5 4.88671875 C-4.81420994 1.06060474 -3.72939817 0.40536937 0 0 Z " fill="#EFF0F1" transform="translate(184.875,249.6875)"/>
</svg>
